<svg xmlns="http://www.w3.org/2000/svg" viewBox="0 0 64 64" role="img" aria-label="PolyAlpha icon">
  <defs>
    <linearGradient id="grad" x1="0%" y1="0%" x2="100%" y2="100%">
      <stop offset="0%" stop-color="#2f6bff" />
      <stop offset="100%" stop-color="#5f94ff" />
    </linearGradient>
  </defs>
  <rect x="2" y="2" width="60" height="60" rx="8" fill="#f7fbff" stroke="url(#grad)" stroke-width="3" />
  <rect x="7" y="7" width="50" height="50" rx="6" fill="#ffffff" stroke="#b5cdfc" stroke-width="2" />
  <rect x="14" y="14" width="36" height="36" rx="5" fill="#f7fbff" stroke="#7aa4f6" stroke-width="2" />
  <rect x="18" y="18" width="28" height="22" rx="3" fill="#ffffff" stroke="#2f6bff" stroke-width="2" />
  <rect x="20" y="24" width="6" height="14" rx="1" fill="#2f6bff" />
  <rect x="29" y="20" width="6" height="18" rx="1" fill="#ffffff" stroke="#2f6bff" stroke-width="1.2" />
  <rect x="38" y="28" width="6" height="10" rx="1" fill="#2f6bff" />
  <rect x="32" y="18" width="2" height="24" fill="#5f94ff" opacity="0.9" />
  <polygon points="44,16 46,18 49,18 47,20 48,23 45,21 42,23 43,20 41,18 44,18" fill="#2f6bff" stroke="#5f94ff" stroke-width="1" />
  <path d="M44 18 L52 26 L52 18 Z" fill="url(#grad)" opacity="0.75" />
</svg>
